<svg width="519" height="322" viewBox="0 0 519 322" fill="none" xmlns="http://www.w3.org/2000/svg">
<g clip-path="url(#clip0_5_78)">
<rect x="488" y="121" width="11.2281" height="68" transform="rotate(90 488 121)" fill="#FB3617"/>
<rect x="488" y="132.228" width="11.2281" height="68" transform="rotate(90 488 132.228)" fill="#FC945C"/>
<rect x="488" y="143.456" width="11.0877" height="68" transform="rotate(90 488 143.456)" fill="#F6C48E"/>
<rect x="488" y="154.544" width="11.2281" height="68" transform="rotate(90 488 154.544)" fill="#1D8698"/>
<rect x="488" y="165.772" width="11.2281" height="68" transform="rotate(90 488 165.772)" fill="#042054"/>
<rect x="79.9999" y="121" width="11.2281" height="68" transform="rotate(90 79.9999 121)" fill="#FB3617"/>
<rect x="79.9999" y="132.228" width="11.2281" height="68" transform="rotate(90 79.9999 132.228)" fill="#FC945C"/>
<rect x="80" y="143.456" width="11.0877" height="68" transform="rotate(90 80 143.456)" fill="#F6C48E"/>
<rect x="79.9999" y="154.544" width="11.2281" height="68" transform="rotate(90 79.9999 154.544)" fill="#1D8698"/>
<rect x="79.9999" y="165.772" width="11.2281" height="68" transform="rotate(90 79.9999 165.772)" fill="#042054"/>
<path d="M503.812 321.873C512.171 321.873 518.973 315.083 518.973 306.742L518.973 15.1286C518.973 6.78491 512.171 -0.00213683 503.812 -0.00213756L15.1459 -0.00218028C6.78573 -0.00218101 -0.0146819 6.78487 -0.0146826 15.1286L-0.0147081 306.742C-0.0147089 315.083 6.78571 321.873 15.1459 321.873C177.169 321.98 360.704 322.097 503.812 321.873ZM429.135 319.711L428.433 317.55L425.863 309.627L382.678 309.627C384.171 309.168 385.54 308.426 386.726 307.466L425.159 307.466L418.414 287.56L385.504 287.695C383.636 286.534 381.444 285.85 379.087 285.85C376.732 285.85 374.537 286.534 372.67 287.695L340.445 287.695C340.192 286.134 339.644 284.675 338.855 283.372L417.334 283.372L411.97 266.856L411.803 266.43C408.97 259.215 406.734 253.517 390.727 253.517L126.5 253.517C117.389 253.517 113.798 258.824 111.21 266.793L105.819 283.397L183.941 283.372C183.15 284.675 182.601 286.134 182.35 287.695L149.628 287.695C147.763 286.534 145.568 285.85 143.211 285.85C140.856 285.85 138.66 286.534 136.794 287.695L104.415 287.718L98.0002 307.465L135.57 307.465C136.758 308.425 138.128 309.168 139.622 309.627L97.2981 309.627L94.1044 319.464L89.2758 319.375L90.1747 317.549L92.7466 309.627L65.6591 309.627C63.7131 310.315 61.6292 310.708 59.4515 310.708C49.1507 310.708 40.7714 302.345 40.7714 292.064C40.7714 288.734 41.6638 285.616 43.2016 282.907L52.3279 238.026L54.5381 238.026L46.222 278.918C49.6071 275.527 54.2861 273.421 59.4515 273.421C69.751 273.421 78.1316 281.785 78.1316 292.065C78.1316 298.458 74.8883 304.107 69.9609 307.465L93.4465 307.465L107.089 265.461C109.701 257.416 114.051 249.194 126.499 249.194L390.726 249.194C409.688 249.194 412.812 257.155 415.834 264.853L416.071 265.461L429.71 307.465L451.961 307.465C451.193 306.943 450.476 306.355 449.797 305.726C446.111 302.317 443.788 297.463 443.788 292.064C443.788 281.785 452.169 273.421 462.468 273.421C467.555 273.421 472.164 275.467 475.537 278.768L464.972 238.026L467.212 238.026L478.955 283.319C480.35 285.93 481.148 288.905 481.148 292.064C481.148 296.646 479.476 300.842 476.719 304.09C473.29 308.134 468.179 310.707 462.468 310.707C460.181 310.707 457.997 310.276 455.97 309.521L455.97 309.627L430.412 309.627L433.47 319.041L431.41 319.71C429.945 320.384 429.89 320.307 429.132 319.71L429.135 319.711ZM308.246 319.711L303.914 319.711L303.914 309.627L218.743 309.627L218.743 319.711L214.412 319.711L214.412 309.627L146.803 309.627C148.297 309.168 149.664 308.426 150.853 307.466L214.415 307.466L214.415 287.741L218.747 287.741L218.747 307.466L303.918 307.466L303.918 287.696L206.377 287.696C206.125 286.135 205.578 284.676 204.789 283.372L318.01 283.372C317.22 284.676 316.674 286.135 316.421 287.696L308.249 287.696L308.249 307.466L371.448 307.466C372.635 308.426 374.003 309.168 375.496 309.627L308.252 309.627L308.246 319.711ZM499.736 309.178C496.551 309.178 493.959 306.592 493.959 303.413C493.959 303.156 494.003 302.909 494.037 302.657L505.129 305.431C504.306 307.614 502.207 309.178 499.735 309.178L499.736 309.178ZM379.083 308.006C377.954 308.006 376.874 307.811 375.861 307.466C371.916 306.124 369.065 302.397 369.065 298.009C369.065 292.497 373.561 288.012 379.082 288.012C384.606 288.012 389.099 292.497 389.099 298.009C389.099 302.397 386.25 306.124 382.304 307.466C381.291 307.811 380.211 308.006 379.083 308.006ZM143.212 308.006C142.083 308.006 141.001 307.811 139.988 307.466C136.042 306.124 133.195 302.397 133.195 298.009C133.195 292.497 137.689 288.012 143.212 288.012C148.737 288.012 153.229 292.497 153.229 298.009C153.229 302.397 150.38 306.124 146.435 307.466C145.421 307.811 144.34 308.006 143.212 308.006L143.212 308.006ZM22.5396 307.557C19.3547 307.557 16.7655 304.971 16.7655 301.794C16.7655 301.536 16.8077 301.287 16.8413 301.036L27.9325 303.81C27.1095 305.993 25.0125 307.557 22.5392 307.557L22.5396 307.557ZM462.467 306.385C465.517 306.385 468.34 305.427 470.667 303.804C474.378 301.212 476.816 296.921 476.816 292.065C476.816 284.17 470.379 277.745 462.467 277.745C454.557 277.745 448.119 284.17 448.119 292.065C448.119 297.601 451.288 302.402 455.902 304.785C457.873 305.801 460.102 306.385 462.467 306.385L462.467 306.385ZM59.4506 306.385C67.361 306.385 73.7991 299.963 73.7991 292.065C73.7991 284.17 67.361 277.745 59.4506 277.745C51.5402 277.745 45.1021 284.17 45.1021 292.065C45.1021 299.963 51.5402 306.385 59.4506 306.385ZM462.467 305.034C461.13 305.034 459.839 304.832 458.624 304.456C453.329 302.817 449.472 297.881 449.472 292.065C449.472 284.914 455.303 279.095 462.467 279.095C469.633 279.095 475.462 284.914 475.462 292.065C475.462 297.277 472.36 301.768 467.909 303.827C466.249 304.595 464.413 305.034 462.467 305.034L462.467 305.034ZM59.4506 305.034C52.2853 305.034 46.4558 299.217 46.4558 292.065C46.4558 284.914 52.2851 279.096 59.4506 279.096C66.6161 279.096 72.4454 284.915 72.4454 292.065C72.4454 299.217 66.6161 305.034 59.4506 305.034ZM505.503 303.295L494.73 300.601C495.722 298.849 497.584 297.65 499.739 297.65C502.883 297.65 505.437 300.171 505.502 303.295L505.503 303.295ZM28.3065 301.674L17.5343 298.98C18.5262 297.227 20.3878 296.029 22.5428 296.029C25.6865 296.029 28.2392 298.55 28.3063 301.674L28.3065 301.674ZM328.43 299.63C322.906 299.63 318.413 295.146 318.413 289.633C318.413 288.971 318.483 288.324 318.608 287.695C318.928 286.081 319.637 284.606 320.636 283.372C322.473 281.098 325.283 279.636 328.431 279.636C331.58 279.636 334.388 281.098 336.227 283.372C337.225 284.606 337.935 286.081 338.255 287.695C338.379 288.324 338.448 288.971 338.448 289.633C338.448 295.146 333.955 299.63 328.431 299.63L328.43 299.63ZM194.361 299.63C188.838 299.63 184.345 295.146 184.345 289.633C184.345 288.971 184.414 288.324 184.537 287.695C184.857 286.081 185.569 284.606 186.567 283.372C188.405 281.098 191.212 279.636 194.361 279.636C197.51 279.636 200.321 281.098 202.159 283.372C203.157 284.606 203.866 286.081 204.185 287.695C204.309 288.324 204.378 288.971 204.378 289.633C204.378 295.146 199.884 299.63 194.361 299.63L194.361 299.63ZM462.467 298.55C466.051 298.55 468.965 295.642 468.965 292.065C468.965 288.49 466.051 285.58 462.467 285.58C458.886 285.58 455.97 288.49 455.97 292.065C455.97 295.642 458.886 298.55 462.467 298.55ZM59.4506 298.549C63.0329 298.549 65.948 295.642 65.948 292.065C65.948 288.49 63.0328 285.58 59.4506 285.58C55.8673 285.58 52.9532 288.49 52.9532 292.065C52.9532 295.642 55.8673 298.549 59.4506 298.549ZM462.467 296.658C459.93 296.658 457.865 294.599 457.865 292.065C457.865 289.534 459.93 287.472 462.467 287.472C465.006 287.472 467.07 289.534 467.07 292.065C467.07 294.599 465.006 296.658 462.467 296.658ZM59.4506 296.658C56.9133 296.658 54.8482 294.599 54.8482 292.065C54.8482 289.534 56.9134 287.472 59.4506 287.472C61.9878 287.472 64.053 289.534 64.053 292.065C64.053 294.599 61.9878 296.658 59.4506 296.658ZM462.467 292.335C462.617 292.335 462.738 292.215 462.738 292.065C462.738 291.769 462.197 291.769 462.197 292.065C462.197 292.215 462.319 292.335 462.467 292.335ZM59.4506 292.335C59.5989 292.335 59.7213 292.215 59.7213 292.065C59.7213 291.769 59.1799 291.769 59.1799 292.065C59.1799 292.215 59.3022 292.335 59.4506 292.335ZM259.476 277.428C254.615 277.428 250.675 273.497 250.675 268.645C250.675 263.794 254.614 259.861 259.476 259.861C264.336 259.861 268.277 263.794 268.277 268.645C268.277 273.496 264.336 277.428 259.476 277.428ZM476.279 233.699L47.451 233.699C41.4799 233.699 36.622 228.726 36.622 222.611L36.6221 45.925C36.6221 39.8111 41.4799 34.8346 47.451 34.8346L476.279 34.8347C482.25 34.8347 487.108 39.8113 487.108 45.925L487.108 222.611C487.108 228.726 482.25 233.699 476.279 233.699ZM441.319 200.736C448.632 200.736 454.36 196.969 454.36 192.159L454.36 106.601C454.36 101.791 448.632 98.0209 441.319 98.0209L82.4093 98.0209C75.0967 98.0209 69.368 101.791 69.368 106.601L69.368 192.159C69.368 196.968 75.0965 200.736 82.4093 200.736L441.319 200.736ZM305.866 196.413L223.476 196.413C232.777 182.929 238.239 166.613 238.239 149.04C238.239 131.763 232.969 115.693 223.952 102.341L305.347 102.341C295.609 115.392 289.839 131.555 289.839 149.04C289.839 166.831 295.82 183.247 305.866 196.413L305.866 196.413ZM368.349 194.973C342.971 194.973 322.325 174.367 322.325 149.04C322.325 123.712 342.971 103.105 368.349 103.105C369.563 103.105 370.766 103.169 371.957 103.262C395.653 105.108 414.372 124.926 414.372 149.04C414.372 173.155 395.653 192.974 371.957 194.819C370.766 194.912 369.563 194.973 368.349 194.973L368.349 194.973ZM154.314 189.569C142.83 189.569 132.452 184.778 125.059 177.104C118.037 169.815 113.706 159.926 113.706 149.04C113.706 138.153 118.037 128.264 125.059 120.975C132.452 113.301 142.83 108.509 154.314 108.509C176.707 108.509 194.924 126.692 194.924 149.04C194.924 171.388 176.707 189.569 154.314 189.569ZM368.349 185.605C369.565 185.605 370.77 185.544 371.957 185.428C390.471 183.612 404.986 167.986 404.986 149.038C404.986 130.092 390.471 114.469 371.957 112.653C370.77 112.536 369.565 112.473 368.349 112.473C348.145 112.473 331.71 128.876 331.71 149.038C331.71 169.202 348.145 185.605 368.349 185.605L368.349 185.605ZM154.314 185.605C174.517 185.605 190.953 169.202 190.953 149.038C190.953 128.876 174.517 112.474 154.314 112.474C142.375 112.474 131.751 118.205 125.059 127.056C120.428 133.179 117.676 140.794 117.676 149.038C117.676 157.285 120.428 164.899 125.059 171.023C131.752 179.875 142.375 185.605 154.314 185.605ZM368.349 181.282C350.535 181.282 336.042 166.818 336.042 149.038C336.042 131.26 350.535 116.797 368.349 116.797C369.569 116.797 370.772 116.872 371.957 117.004C388.078 118.802 400.654 132.477 400.654 149.038C400.654 165.6 388.078 179.279 371.957 181.077C370.772 181.209 369.569 181.282 368.349 181.282L368.349 181.282ZM154.314 181.282C141.391 181.282 130.22 173.668 125.059 162.698C123.106 158.547 122.007 153.919 122.007 149.038C122.007 144.159 123.106 139.531 125.059 135.381C130.22 124.412 141.391 116.797 154.314 116.797C172.129 116.797 186.621 131.26 186.621 149.038C186.621 166.818 172.129 181.282 154.314 181.282ZM368.349 178.544C369.571 178.544 370.773 178.462 371.957 178.316C386.562 176.534 397.913 164.088 397.913 149.038C397.913 133.991 386.562 121.544 371.957 119.762C370.773 119.617 369.571 119.534 368.349 119.534C352.047 119.534 338.785 132.77 338.785 149.038C338.785 165.308 352.048 178.544 368.349 178.544L368.349 178.544ZM154.314 178.544C170.616 178.544 183.878 165.308 183.878 149.038C183.878 132.77 170.615 119.534 154.314 119.534C139.45 119.534 127.118 130.541 125.059 144.814C124.86 146.196 124.75 147.604 124.75 149.038C124.75 150.474 124.86 151.883 125.059 153.264C127.119 167.538 139.45 178.544 154.314 178.544L154.314 178.544ZM368.349 172.059C364.179 172.059 360.276 170.933 356.898 168.994L358.913 165.486C356.027 163.834 353.616 161.444 351.938 158.575L348.442 160.612C346.456 157.223 345.296 153.296 345.284 149.097L349.364 149.038C349.364 145.708 350.24 142.435 351.898 139.57L348.393 137.548C350.417 134.06 353.325 131.156 356.815 129.132L358.846 132.632C361.713 130.974 364.993 130.093 368.329 130.09L368.329 126.02L368.353 126.018C369.583 126.018 370.782 126.143 371.961 126.329C374.793 126.776 377.454 127.73 379.846 129.109L377.822 132.611C380.705 134.27 383.112 136.666 384.783 139.536L388.285 137.508C390.262 140.895 391.412 144.817 391.418 149.01L387.338 149.038C387.338 152.355 386.468 155.617 384.823 158.473L388.334 160.489C386.319 163.981 383.415 166.89 379.926 168.922L377.89 165.426C376.054 166.494 374.046 167.237 371.961 167.639C370.797 167.862 369.609 167.983 368.412 167.987L368.425 172.055L368.349 172.059ZM154.314 172.059C150.145 172.059 146.242 170.933 142.863 168.994L144.879 165.486C141.993 163.834 139.581 161.444 137.904 158.575L134.408 160.612C132.422 157.223 131.261 153.297 131.25 149.097L135.328 149.038C135.328 145.708 136.206 142.435 137.866 139.573L134.357 137.549C136.381 134.061 139.29 131.157 142.783 129.132L144.814 132.632C147.681 130.974 150.961 130.093 154.295 130.091L154.295 126.021L154.319 126.019C158.506 126.019 162.423 127.155 165.81 129.109L163.786 132.611C166.669 134.271 169.077 136.666 170.749 139.537L174.251 137.506C176.228 140.893 177.378 144.816 177.384 149.01L173.304 149.038C173.304 152.356 172.435 155.617 170.789 158.474L174.3 160.489C172.283 163.981 169.381 166.891 165.892 168.922L163.856 165.427C160.99 167.092 157.713 167.976 154.378 167.987L154.391 172.055L154.314 172.059ZM468.569 89.5963C476.387 89.5963 482.75 83.2932 482.75 75.546L482.75 57.7131C482.75 49.966 476.387 43.6628 468.569 43.6628L55.2045 43.6628C47.3847 43.6628 41.0213 49.9659 41.0213 57.7131L41.0213 75.5459C41.0213 83.2931 47.3851 89.5962 55.2045 89.5962L468.569 89.5963ZM468.569 87.4347L416.799 87.4347L55.2032 87.4347C48.577 87.4347 43.1858 82.1022 43.1858 75.5459L43.1858 57.7131C43.1858 51.1584 48.5772 45.8243 55.2032 45.8243L468.567 45.8243C475.192 45.8243 480.583 51.158 480.583 57.7131L480.583 75.546C480.583 82.1019 475.191 87.4347 468.567 87.4347L468.569 87.4347ZM499.689 25.5097C496.504 25.5097 493.913 22.9245 493.913 19.747C493.913 19.4865 493.954 19.2389 493.989 18.987L505.08 21.7607C504.259 23.9439 502.162 25.5096 499.689 25.5096L499.689 25.5097ZM22.5632 25.5097C19.3784 25.5097 16.7892 22.9244 16.7892 19.7469C16.7892 19.4865 16.8314 19.2388 16.865 18.987L27.9561 21.7607C27.1342 23.9439 25.0361 25.5096 22.5628 25.5096L22.5632 25.5097ZM505.456 19.6246L494.682 16.9332C495.674 15.1802 497.537 13.9822 499.692 13.9822C502.837 13.9822 505.39 16.5034 505.456 19.6246L505.456 19.6246ZM28.3301 19.6246L17.5579 16.9332C18.5499 15.1801 20.4103 13.9822 22.5664 13.9822C25.7101 13.9822 28.2639 16.5022 28.3299 19.6246L28.3301 19.6246Z" fill="#0A0B09"/>
</g>
<defs>
<clipPath id="clip0_5_78">
<rect width="519" height="322" fill="white" transform="translate(519 322) rotate(-180)"/>
</clipPath>
</defs>
</svg>
